<?xml version="1.0" encoding="UTF-8" standalone="no"?>
<!DOCTYPE svg PUBLIC "-//W3C//DTD SVG 1.1//EN" "http://www.w3.org/Graphics/SVG/1.1/DTD/svg11.dtd">
<svg xmlns="http://www.w3.org/2000/svg" version="1.1" viewBox="0 0 110 100">
    <path fill="rgb(42,52,41)" fill-opacity="0.000"
          d="M 0.00 0.00 Q 29.41 0.00 58.81 0.00 Q 47.21 1.13 37.62 7.64 Q 32.06 11.42 29.81 16.81 Q 27.12 23.26 30.97 29.60 Q 34.09 34.75 39.45 37.53 Q 46.02 40.93 53.51 43.78 Q 55.34 44.47 55.17 46.42 Q 54.97 48.69 52.72 51.17 Q 51.37 52.64 53.34 52.35 Q 61.45 51.14 68.11 46.94 Q 71.52 44.78 73.91 43.94 Q 78.37 42.38 82.90 41.05 Q 89.54 39.09 93.94 36.19 Q 98.20 33.37 100.18 28.77 Q 102.08 24.34 101.27 19.55 Q 100.10 12.69 93.93 8.32 Q 84.20 1.44 72.31 0.00 Q 91.16 0.00 110.00 0.00 Q 110.00 50.00 110.00 100.00 Q 76.22 100.00 42.44 100.00 Q 44.93 98.44 45.08 95.63 Q 45.20 93.56 45.20 93.51 Q 45.77 89.42 46.61 84.89 Q 46.81 83.83 47.54 84.63 Q 49.44 86.70 51.19 86.28 Q 52.48 85.97 53.36 83.84 Q 55.92 77.58 57.68 71.05 Q 58.75 67.10 63.06 66.56 Q 63.89 66.46 63.87 66.03 A 0.87 0.61 9.5 0 0 63.22 65.39 L 55.49 63.33 A 0.67 0.65 -68.5 0 0 54.74 63.67 L 51.14 70.48 A 1.42 0.59 -70.0 0 1 50.50 71.18 Q 49.86 71.41 49.75 70.50 Q 48.91 63.51 42.19 65.44 Q 40.41 65.95 33.60 66.35 Q 31.24 66.49 27.94 66.00 Q 25.11 65.59 22.25 65.51 A 1.58 1.37 24.0 0 0 21.33 65.79 Q 19.49 67.20 19.01 69.84 Q 18.56 72.33 17.31 70.05 L 13.71 63.49 A 0.69 0.65 -20.8 0 0 12.95 63.18 Q 7.10 64.63 5.44 65.44 Q 4.29 65.99 4.72 66.84 A 0.76 0.60 -17.7 0 0 5.50 67.13 Q 9.69 66.26 10.75 70.00 Q 12.40 75.78 14.25 81.50 Q 15.18 84.39 17.70 86.07 A 0.73 0.72 43.4 0 0 18.54 86.05 Q 22.16 83.35 22.78 79.06 Q 22.82 78.78 22.94 78.60 Q 23.39 77.98 23.53 78.84 Q 24.91 87.02 26.00 95.25 Q 26.46 98.69 28.69 100.00 Q 14.34 100.00 0.00 100.00 Q 0.00 50.00 0.00 0.00 Z M 44.84 55.65 A 9.29 9.29 0 0 0 35.55 46.36 A 9.29 9.29 0 0 0 26.26 55.65 A 9.29 9.29 0 0 0 35.55 64.94 A 9.29 9.29 0 0 0 44.84 55.65 Z"/>
    <path fill="rgb(141,198,65)" fill-opacity="1.000"
          d="M 58.81 0.00 Q 65.56 0.00 72.31 0.00 Q 84.20 1.44 93.93 8.32 Q 100.10 12.69 101.27 19.55 Q 102.08 24.34 100.18 28.77 Q 98.20 33.37 93.94 36.19 Q 89.54 39.09 82.90 41.05 Q 78.37 42.38 73.91 43.94 Q 71.52 44.78 68.11 46.94 Q 61.45 51.14 53.34 52.35 Q 51.37 52.64 52.72 51.17 Q 54.97 48.69 55.17 46.42 Q 55.34 44.47 53.51 43.78 Q 46.02 40.93 39.45 37.53 Q 34.09 34.75 30.97 29.60 Q 27.12 23.26 29.81 16.81 Q 32.06 11.42 37.62 7.64 Q 47.21 1.13 58.81 0.00 Z M 56.10 27.38 Q 57.11 26.13 57.10 25.25 Q 57.01 18.44 57.00 11.63 Q 57.00 11.52 57.12 9.89 Q 57.32 7.16 54.47 8.08 A 0.71 0.67 81.6 0 0 54.00 8.75 Q 54.00 16.75 53.89 24.75 Q 53.87 26.48 54.83 27.45 A 0.85 0.85 -48.0 0 0 56.10 27.38 Z M 65.92 28.30 Q 67.00 29.13 67.00 27.76 Q 67.00 19.12 67.00 10.49 Q 67.00 10.40 67.08 9.51 Q 67.25 7.51 64.50 8.11 A 0.64 0.63 -6.2 0 0 64.00 8.73 Q 64.00 16.87 64.08 24.50 Q 64.10 26.90 65.92 28.30 Z M 76.27 27.19 Q 76.49 26.59 76.73 26.06 Q 77.00 25.46 77.02 24.89 Q 77.25 17.82 77.75 10.77 Q 78.01 6.98 74.77 8.13 A 0.76 0.72 81.1 0 0 74.30 8.82 Q 74.20 16.66 74.22 24.50 Q 74.23 26.18 75.04 27.35 Q 75.80 28.45 76.27 27.19 Z M 75.18 31.95 Q 72.03 34.66 75.08 36.74 A 0.84 0.83 47.4 0 0 75.94 36.78 Q 79.27 35.01 75.77 31.95 A 0.45 0.44 -44.4 0 0 75.18 31.95 Z M 57.50 34.57 Q 57.24 33.20 56.15 32.30 A 0.76 0.71 -39.0 0 0 55.31 32.24 Q 51.47 34.41 55.00 36.67 A 0.88 0.81 45.2 0 0 55.88 36.71 Q 56.72 36.24 57.29 35.48 A 1.19 1.19 54.7 0 0 57.50 34.57 Z M 65.35 33.11 Q 61.48 34.67 65.04 37.50 A 0.71 0.68 48.0 0 0 65.86 37.56 Q 69.06 35.50 66.22 33.24 A 0.88 0.87 53.2 0 0 65.35 33.11 Z"/>
    <path fill="rgb(42,52,41)" fill-opacity="0.000"
          d="M 56.10 27.38 A 0.85 0.85 -48.0 0 1 54.83 27.45 Q 53.87 26.48 53.89 24.75 Q 54.00 16.75 54.00 8.75 A 0.71 0.67 81.6 0 1 54.47 8.08 Q 57.32 7.16 57.12 9.89 Q 57.00 11.52 57.00 11.63 Q 57.01 18.44 57.10 25.25 Q 57.11 26.13 56.10 27.38 Z"/>
    <path fill="rgb(42,52,41)" fill-opacity="0.000"
          d="M 65.92 28.30 Q 64.10 26.90 64.08 24.50 Q 64.00 16.87 64.00 8.73 A 0.64 0.63 -6.2 0 1 64.50 8.11 Q 67.25 7.51 67.08 9.51 Q 67.00 10.40 67.00 10.49 Q 67.00 19.12 67.00 27.76 Q 67.00 29.13 65.92 28.30 Z"/>
    <path fill="rgb(42,52,41)" fill-opacity="0.000"
          d="M 76.27 27.19 Q 75.80 28.45 75.04 27.35 Q 74.23 26.18 74.22 24.50 Q 74.20 16.66 74.30 8.82 A 0.76 0.72 81.1 0 1 74.77 8.13 Q 78.01 6.98 77.75 10.77 Q 77.25 17.82 77.02 24.89 Q 77.00 25.46 76.73 26.06 Q 76.49 26.59 76.27 27.19 Z"/>
    <path fill="rgb(42,52,41)" fill-opacity="0.000"
          d="M 75.18 31.95 A 0.45 0.44 -44.4 0 1 75.77 31.95 Q 79.27 35.01 75.94 36.78 A 0.84 0.83 47.4 0 1 75.08 36.74 Q 72.03 34.66 75.18 31.95 Z"/>
    <path fill="rgb(42,52,41)" fill-opacity="0.000"
          d="M 57.29 35.48 Q 56.72 36.24 55.88 36.71 A 0.88 0.81 45.2 0 1 55.00 36.67 Q 51.47 34.41 55.31 32.24 A 0.76 0.71 -39.0 0 1 56.15 32.30 Q 57.24 33.20 57.50 34.57 A 1.19 1.19 41.6 0 1 57.29 35.48 Z"/>
    <path fill="rgb(42,52,41)" fill-opacity="0.000"
          d="M 66.22 33.24 Q 69.06 35.50 65.86 37.56 A 0.71 0.68 48.0 0 1 65.04 37.50 Q 61.48 34.67 65.35 33.11 A 0.88 0.87 53.2 0 1 66.22 33.24 Z"/>
    <circle fill="rgb(104,48,145)" fill-opacity="1.000" cx="35.55" cy="55.65" r="9.29"/>
    <path fill="rgb(104,48,145)" fill-opacity="1.000"
          d="M 42.44 100.00 Q 35.56 100.00 28.69 100.00 Q 26.46 98.69 26.00 95.25 Q 24.91 87.02 23.53 78.84 Q 23.39 77.98 22.94 78.60 Q 22.82 78.78 22.78 79.06 Q 22.16 83.35 18.54 86.05 A 0.73 0.72 43.4 0 1 17.70 86.07 Q 15.18 84.39 14.25 81.50 Q 12.40 75.78 10.75 70.00 Q 9.69 66.26 5.50 67.13 A 0.76 0.60 -17.7 0 1 4.72 66.84 Q 4.29 65.99 5.44 65.44 Q 7.10 64.63 12.95 63.18 A 0.69 0.65 -20.8 0 1 13.71 63.49 L 17.31 70.05 Q 18.56 72.33 19.01 69.84 Q 19.49 67.20 21.33 65.79 A 1.58 1.37 24.0 0 1 22.25 65.51 Q 25.11 65.59 27.94 66.00 Q 31.24 66.49 33.60 66.35 Q 40.41 65.95 42.19 65.44 Q 48.91 63.51 49.75 70.50 Q 49.86 71.41 50.50 71.18 A 1.42 0.59 -70.0 0 0 51.14 70.48 L 54.74 63.67 A 0.67 0.65 -68.5 0 1 55.49 63.33 L 63.22 65.39 A 0.87 0.61 9.5 0 1 63.87 66.03 Q 63.89 66.46 63.06 66.56 Q 58.75 67.10 57.68 71.05 Q 55.92 77.58 53.36 83.84 Q 52.48 85.97 51.19 86.28 Q 49.44 86.70 47.54 84.63 Q 46.81 83.83 46.61 84.89 Q 45.77 89.42 45.20 93.51 Q 45.20 93.56 45.08 95.63 Q 44.93 98.44 42.44 100.00 Z"/>
</svg>
