<svg xmlns="http://www.w3.org/2000/svg" version="1.1" xmlns:xlink="http://www.w3.org/1999/xlink" xmlns:svgjs="http://svgjs.com/svgjs" width="512" height="512" x="0" y="0" viewBox="0 0 36 36" style="enable-background:new 0 0 512 512" xml:space="preserve" class=""><g><path fill="#fbbf24" fill-rule="evenodd" d="M9.91 15.24c-.38-.81-.59-1.72-.59-2.67 0-3.59 2.92-6.51 6.51-6.51.95 0 1.86.21 2.67.59.38.81.59 1.72.59 2.67 0 3.59-2.92 6.51-6.51 6.51-.95 0-1.86-.21-2.67-.59zM6.07 33.19h16.27v-6.51c0-.93-.2-1.84-.59-2.67-.83-.39-1.73-.59-2.67-.59h-6.51a6.52 6.52 0 0 0-6.51 6.51v3.25z" data-original="#43d685" class=""></path><path fill="#0d0d0d" d="M31.02 34H4.98C3.33 34 2 32.66 2 31.02v-4.34c0-1.96.76-3.79 2.14-5.18a7.276 7.276 0 0 1 5.18-2.14h6.51c1.96 0 3.79.76 5.18 2.14a7.276 7.276 0 0 1 2.14 5.18v5.69h7.86c.36 0 .71-.14.96-.4s.4-.6.4-.96v-2.17c0-.94-.37-1.83-1.03-2.49a3.486 3.486 0 0 0-2.49-1.03H25.6c-.45 0-.81-.36-.81-.81s.36-.81.81-.81h3.25c1.38 0 2.67.54 3.64 1.51S34 27.48 34 28.85v2.17c0 .78-.32 1.55-.87 2.11-.56.56-1.31.87-2.11.87zM9.32 20.98c-1.52 0-2.95.59-4.03 1.67s-1.67 2.51-1.67 4.03v4.34c0 .75.61 1.36 1.36 1.36h16.55v-5.69c0-1.52-.59-2.95-1.67-4.03s-2.51-1.67-4.03-1.67H9.32zm17.36 0c-3.44 0-6.24-2.8-6.24-6.24s2.8-6.24 6.24-6.24 6.24 2.8 6.24 6.24-2.8 6.24-6.24 6.24zm0-10.85c-2.54 0-4.61 2.07-4.61 4.61s2.07 4.61 4.61 4.61 4.61-2.07 4.61-4.61-2.07-4.61-4.61-4.61zm-14.1 6.51c-4.04 0-7.32-3.28-7.32-7.32S8.54 2 12.58 2s7.32 3.28 7.32 7.32-3.28 7.32-7.32 7.32zm0-13.02c-3.14 0-5.69 2.55-5.69 5.69S9.45 15 12.58 15s5.69-2.55 5.69-5.69-2.56-5.69-5.69-5.69z" data-original="#0d0d0d" class=""></path></g></svg>