<?xml version="1.0" encoding="UTF-8" standalone="no"?>
<!DOCTYPE svg PUBLIC "-//W3C//DTD SVG 1.1//EN" "http://www.w3.org/Graphics/SVG/1.1/DTD/svg11.dtd">
<svg xmlns="http://www.w3.org/2000/svg" version="1.1" viewBox="0 0 250 200">
    <path fill="rgb(245,245,245)" fill-opacity="0"
          d="M 0.00 0.00 Q 135.50 0.00 271.00 0.00 Q 271.00 93.00 271.00 186.00 Q 135.50 186.00 0.00 186.00 Q 0.00 93.00 0.00 0.00 Z M 75.6915 44.4325 A 12.62 12.39 3.1 0 0 63.7600 31.3781 A 12.62 12.39 3.1 0 0 50.4885 43.0675 A 12.62 12.39 3.1 0 0 62.4200 56.1219 A 12.62 12.39 3.1 0 0 75.6915 44.4325 Z M 182.6095 43.6500 A 12.61 12.40 -0.5 0 0 169.8918 31.3605 A 12.61 12.40 -0.5 0 0 157.3905 43.8700 A 12.61 12.40 -0.5 0 0 170.1082 56.1595 A 12.61 12.40 -0.5 0 0 182.6095 43.6500 Z M 80.46 117.82 Q 81.28 137.52 80.75 142.50 Q 80.27 147.04 81.98 150.99 A 2.50 2.49 78.3 0 0 84.27 152.50 Q 92.75 152.50 100.24 152.74 Q 107.14 152.96 106.03 146.55 A 1.25 1.21 14.1 0 0 105.54 145.76 Q 101.89 143.08 96.27 142.34 A 0.61 0.61 2.8 0 1 95.74 141.76 Q 95.32 131.25 95.73 120.51 Q 96.04 112.30 95.50 110.00 Q 94.35 105.12 90.75 104.00 Q 85.73 102.45 83.50 102.50 Q 77.62 102.64 71.28 102.22 A 0.57 0.57 1.7 0 1 70.75 101.66 Q 70.33 88.93 70.49 76.11 Q 70.49 76.00 70.59 73.90 Q 70.83 68.78 67.86 65.27 Q 65.40 62.38 61.25 62.06 Q 54.78 61.56 52.02 66.93 Q 50.57 69.75 50.53 75.96 Q 50.40 99.71 50.50 106.75 Q 50.58 112.30 54.75 115.51 Q 56.27 116.68 58.73 116.72 Q 69.33 116.88 79.93 117.29 A 0.55 0.55 45.0 0 1 80.46 117.82 Z M 179.17 64.06 Q 177.03 62.25 173.25 62.00 Q 167.74 61.64 164.11 64.14 Q 159.23 67.51 154.18 70.63 Q 151.12 72.52 147.50 72.39 Q 143.50 72.25 139.50 72.22 Q 136.03 72.20 133.11 73.92 A 1.62 1.52 -4.8 0 0 132.47 74.63 Q 130.94 78.07 133.67 80.38 A 1.60 1.41 -20.5 0 0 134.56 80.72 Q 141.45 81.16 148.35 81.04 Q 148.48 81.04 151.64 81.13 Q 156.66 81.27 160.81 78.31 Q 162.48 77.12 162.50 79.00 L 162.76 100.34 Q 162.79 102.84 160.77 103.21 L 157.81 103.76 A 0.63 0.52 -7.3 0 0 157.29 104.31 L 157.69 116.00 A 0.61 0.56 1.2 0 0 158.25 116.54 Q 165.56 117.06 172.87 116.85 Q 176.15 116.75 177.94 115.78 Q 180.48 114.39 181.62 111.80 Q 182.50 109.82 182.50 104.58 Q 182.49 87.79 182.38 71.00 Q 182.35 66.77 179.17 64.06 Z M 60.23 141.69 L 60.15 134.77 A 1.46 1.32 -3.3 0 1 61.47 133.43 Q 65.86 133.03 71.00 133.00 Q 72.43 132.99 73.46 131.77 Q 74.72 130.29 75.11 129.75 Q 76.33 128.02 74.81 125.69 Q 73.32 123.40 71.12 122.99 Q 71.10 122.98 66.87 123.03 Q 56.68 123.13 46.49 122.75 A 1.81 1.81 1.2 0 1 44.75 120.94 L 44.75 70.99 Q 44.75 68.48 42.32 67.88 Q 34.77 66.00 35.13 73.21 Q 35.26 75.73 35.26 75.80 Q 35.40 98.02 35.00 120.25 Q 34.94 123.65 35.14 127.04 Q 35.31 129.98 36.80 131.34 Q 38.73 133.10 41.75 133.06 Q 45.81 133.00 49.82 133.61 A 0.64 0.57 4.7 0 1 50.37 134.18 L 50.36 141.57 A 0.62 0.55 -4.2 0 1 49.82 142.12 Q 45.27 142.73 41.59 145.38 A 1.44 1.43 -10.7 0 0 41.05 146.17 Q 39.09 153.58 47.35 152.45 A 1.68 1.68 -86.0 0 0 48.74 151.24 Q 49.55 148.37 52.89 148.24 Q 54.25 148.19 55.60 147.99 Q 58.81 147.49 60.69 149.66 Q 62.44 151.67 62.78 151.88 Q 64.20 152.72 65.89 152.62 Q 67.95 152.50 69.27 151.13 Q 70.74 149.61 70.52 147.27 A 2.35 2.34 -76.4 0 0 69.44 145.49 Q 65.05 142.71 60.80 142.24 A 0.65 0.54 4.1 0 1 60.23 141.69 Z M 182.55 141.94 L 182.50 134.48 A 1.02 0.99 -3.1 0 1 183.42 133.48 Q 187.49 133.08 191.75 133.00 Q 194.66 132.95 196.39 131.14 Q 197.69 129.78 197.70 126.83 Q 197.80 99.29 197.83 71.75 Q 197.83 68.03 193.75 67.75 Q 188.35 67.38 188.34 72.25 Q 188.30 97.10 188.19 121.95 A 0.53 0.53 -2.3 0 1 187.70 122.48 Q 177.48 123.41 168.25 123.00 Q 165.18 122.86 162.46 123.17 Q 160.02 123.44 158.64 125.05 Q 155.82 128.36 158.85 131.05 Q 160.44 132.46 163.58 132.82 Q 167.66 133.28 171.77 133.50 A 1.26 1.14 2.5 0 1 172.96 134.68 L 172.79 141.43 A 1.09 0.97 -3.9 0 1 171.86 142.38 Q 167.06 143.06 163.74 145.26 Q 162.03 146.39 162.53 148.37 Q 163.77 153.28 168.49 152.53 Q 169.92 152.30 171.05 151.21 Q 172.13 150.19 173.02 148.98 A 1.35 1.16 -74.4 0 1 173.80 148.46 Q 175.29 148.18 176.82 148.19 Q 176.98 148.20 179.18 148.13 Q 182.95 148.02 184.50 151.72 A 1.28 1.28 -11.4 0 0 185.68 152.50 L 190.05 152.50 A 1.76 1.75 -79.2 0 0 191.68 151.39 Q 192.75 148.68 192.19 146.18 A 1.41 1.36 13.0 0 0 191.67 145.38 Q 187.84 142.48 183.06 142.44 A 0.52 0.50 0.6 0 1 182.55 141.94 Z M 112.31 87.25 Q 111.16 87.25 109.07 87.25 A 1.84 1.83 -79.1 0 0 107.37 88.41 Q 105.98 91.96 107.26 95.37 Q 108.08 97.56 110.52 97.75 A 1.13 1.13 -87.8 0 1 111.56 98.88 Q 111.74 121.72 111.75 144.75 Q 111.75 149.02 113.25 151.81 A 0.87 0.85 -13.7 0 0 114.01 152.26 L 148.82 152.51 A 2.49 2.40 -78.9 0 0 151.10 150.92 Q 152.38 147.58 152.36 144.25 Q 152.23 121.34 152.43 98.43 A 0.70 0.65 -8.7 0 1 152.92 97.81 L 155.21 97.11 A 1.30 1.23 -83.2 0 0 155.94 96.50 Q 158.01 92.73 155.96 88.09 A 1.43 1.41 -11.7 0 0 154.66 87.25 Q 133.03 87.30 112.31 87.25 Z"/>
    <ellipse fill="rgb(139,198,67)" fill-opacity="1.000" cx="0" cy="0" rx="12.62" ry="12.39"
             transform="translate(63.09,43.75) rotate(3.1)"/>
    <ellipse fill="rgb(139,198,67)" fill-opacity="1.000" cx="0" cy="0" rx="12.61" ry="12.40"
             transform="translate(170.00,43.76) rotate(-0.5)"/>
    <path fill="rgb(139,198,67)" fill-opacity="1.000"
          d="M 79.93 117.29 Q 69.33 116.88 58.73 116.72 Q 56.27 116.68 54.75 115.51 Q 50.58 112.30 50.50 106.75 Q 50.40 99.71 50.53 75.96 Q 50.57 69.75 52.02 66.93 Q 54.78 61.56 61.25 62.06 Q 65.40 62.38 67.86 65.27 Q 70.83 68.78 70.59 73.90 Q 70.49 76.00 70.49 76.11 Q 70.33 88.93 70.75 101.66 A 0.57 0.57 1.7 0 0 71.28 102.22 Q 77.62 102.64 83.50 102.50 Q 85.73 102.45 90.75 104.00 Q 94.35 105.12 95.50 110.00 Q 96.04 112.30 95.73 120.51 Q 95.32 131.25 95.74 141.76 A 0.61 0.61 2.8 0 0 96.27 142.34 Q 101.89 143.08 105.54 145.76 A 1.25 1.21 14.1 0 1 106.03 146.55 Q 107.14 152.96 100.24 152.74 Q 92.75 152.50 84.27 152.50 A 2.50 2.49 78.3 0 1 81.98 150.99 Q 80.27 147.04 80.75 142.50 Q 81.28 137.52 80.46 117.82 A 0.55 0.55 -45.0 0 0 79.93 117.29 Z"/>
    <path fill="rgb(139,198,67)" fill-opacity="1.000"
          d="M 179.17 64.06 Q 182.35 66.77 182.38 71.00 Q 182.49 87.79 182.50 104.58 Q 182.50 109.82 181.62 111.80 Q 180.48 114.39 177.94 115.78 Q 176.15 116.75 172.87 116.85 Q 165.56 117.06 158.25 116.54 A 0.61 0.56 1.2 0 1 157.69 116.00 L 157.29 104.31 A 0.63 0.52 -7.3 0 1 157.81 103.76 L 160.77 103.21 Q 162.79 102.84 162.76 100.34 L 162.50 79.00 Q 162.48 77.12 160.81 78.31 Q 156.66 81.27 151.64 81.13 Q 148.48 81.04 148.35 81.04 Q 141.45 81.16 134.56 80.72 A 1.60 1.41 -20.5 0 1 133.67 80.38 Q 130.94 78.07 132.47 74.63 A 1.62 1.52 -4.8 0 1 133.11 73.92 Q 136.03 72.20 139.50 72.22 Q 143.50 72.25 147.50 72.39 Q 151.12 72.52 154.18 70.63 Q 159.23 67.51 164.11 64.14 Q 167.74 61.64 173.25 62.00 Q 177.03 62.25 179.17 64.06 Z"/>
    <path fill="rgb(137,197,65)" fill-opacity="1.000"
          d="M 60.80 142.24 Q 65.05 142.71 69.44 145.49 A 2.35 2.34 -76.4 0 1 70.52 147.27 Q 70.74 149.61 69.27 151.13 Q 67.95 152.50 65.89 152.62 Q 64.20 152.72 62.78 151.88 Q 62.44 151.67 60.69 149.66 Q 58.81 147.49 55.60 147.99 Q 54.25 148.19 52.89 148.24 Q 49.55 148.37 48.74 151.24 A 1.68 1.68 -86.0 0 1 47.35 152.45 Q 39.09 153.58 41.05 146.17 A 1.44 1.43 -10.7 0 1 41.59 145.38 Q 45.27 142.73 49.82 142.12 A 0.62 0.55 -4.2 0 0 50.36 141.57 L 50.37 134.18 A 0.64 0.57 4.7 0 0 49.82 133.61 Q 45.81 133.00 41.75 133.06 Q 38.73 133.10 36.80 131.34 Q 35.31 129.98 35.14 127.04 Q 34.94 123.65 35.00 120.25 Q 35.40 98.02 35.26 75.80 Q 35.26 75.73 35.13 73.21 Q 34.77 66.00 42.32 67.88 Q 44.75 68.48 44.75 70.99 L 44.75 120.94 A 1.81 1.81 1.2 0 0 46.49 122.75 Q 56.68 123.13 66.87 123.03 Q 71.10 122.98 71.12 122.99 Q 73.32 123.40 74.81 125.69 Q 76.33 128.02 75.11 129.75 Q 74.72 130.29 73.46 131.77 Q 72.43 132.99 71.00 133.00 Q 65.86 133.03 61.47 133.43 A 1.46 1.32 -3.3 0 0 60.15 134.77 L 60.23 141.69 A 0.65 0.54 4.1 0 0 60.80 142.24 Z"/>
    <path fill="rgb(137,197,65)" fill-opacity="1.000"
          d="M 183.06 142.44 Q 187.84 142.48 191.67 145.38 A 1.41 1.36 13.0 0 1 192.19 146.18 Q 192.75 148.68 191.68 151.39 A 1.76 1.75 -79.2 0 1 190.05 152.50 L 185.68 152.50 A 1.28 1.28 -11.4 0 1 184.50 151.72 Q 182.95 148.02 179.18 148.13 Q 176.98 148.20 176.82 148.19 Q 175.29 148.18 173.80 148.46 A 1.35 1.16 -74.4 0 0 173.02 148.98 Q 172.13 150.19 171.05 151.21 Q 169.92 152.30 168.49 152.53 Q 163.77 153.28 162.53 148.37 Q 162.03 146.39 163.74 145.26 Q 167.06 143.06 171.86 142.38 A 1.09 0.97 -3.9 0 0 172.79 141.43 L 172.96 134.68 A 1.26 1.14 2.5 0 0 171.77 133.50 Q 167.66 133.28 163.58 132.82 Q 160.44 132.46 158.85 131.05 Q 155.82 128.36 158.64 125.05 Q 160.02 123.44 162.46 123.17 Q 165.18 122.86 168.25 123.00 Q 177.48 123.41 187.70 122.48 A 0.53 0.53 -2.3 0 0 188.19 121.95 Q 188.30 97.10 188.34 72.25 Q 188.35 67.38 193.75 67.75 Q 197.83 68.03 197.83 71.75 Q 197.80 99.29 197.70 126.83 Q 197.69 129.78 196.39 131.14 Q 194.66 132.95 191.75 133.00 Q 187.49 133.08 183.42 133.48 A 1.02 0.99 -3.1 0 0 182.50 134.48 L 182.55 141.94 A 0.52 0.50 0.6 0 0 183.06 142.44 Z"/>
    <path fill="rgb(139,198,67)" fill-opacity="1.000"
          d="M 112.31 87.25 Q 133.03 87.30 154.66 87.25 A 1.43 1.41 -11.7 0 1 155.96 88.09 Q 158.01 92.73 155.94 96.50 A 1.30 1.23 -83.2 0 1 155.21 97.11 L 152.92 97.81 A 0.70 0.65 -8.7 0 0 152.43 98.43 Q 152.23 121.34 152.36 144.25 Q 152.38 147.58 151.10 150.92 A 2.49 2.40 -78.9 0 1 148.82 152.51 L 114.01 152.26 A 0.87 0.85 -13.7 0 1 113.25 151.81 Q 111.75 149.02 111.75 144.75 Q 111.74 121.72 111.56 98.88 A 1.13 1.13 -87.8 0 0 110.52 97.75 Q 108.08 97.56 107.26 95.37 Q 105.98 91.96 107.37 88.41 A 1.84 1.83 -79.1 0 1 109.07 87.25 Q 111.16 87.25 112.31 87.25 Z"/>
</svg>
