<svg xmlns="http://www.w3.org/2000/svg" version="1.1" xmlns:xlink="http://www.w3.org/1999/xlink" xmlns:svgjs="http://svgjs.com/svgjs" width="512" height="512" x="0" y="0" viewBox="0 0 64 64" style="enable-background:new 0 0 512 512" xml:space="preserve" class=""><g><path fill="#fbbf24" d="M55 17c-4.411 0-8-3.589-8-8s3.589-8 8-8 8 3.589 8 8-3.589 8-8 8zm0-11c-1.654 0-3 1.346-3 3s1.346 3 3 3 3-1.346 3-3-1.346-3-3-3zM13 21c-4.411 0-8-3.589-8-8s3.589-8 8-8 8 3.589 8 8-3.589 8-8 8zm0-11c-1.654 0-3 1.346-3 3s1.346 3 3 3 3-1.346 3-3-1.346-3-3-3zM9 63c-4.411 0-8-3.589-8-8s3.589-8 8-8 8 3.589 8 8-3.589 8-8 8zm0-11c-1.654 0-3 1.346-3 3s1.346 3 3 3 3-1.346 3-3-1.346-3-3-3zM51 59c-4.411 0-8-3.589-8-8s3.589-8 8-8 8 3.589 8 8-3.589 8-8 8zm0-11c-1.654 0-3 1.346-3 3s1.346 3 3 3 3-1.346 3-3-1.346-3-3-3z" data-original="#f0bc5e" class=""></path><path d="M25 32h-2c0 1.654 1.346 3 3 3v-2a1 1 0 0 1-1-1zM27 22v2a1 1 0 0 1 1 1h2c0-1.654-1.346-3-3-3zM35 32v2a1 1 0 0 1 1 1h2c0-1.654-1.346-3-3-3zM40 29h-2c0 1.683 1.757 3 4 3v-2c-1.221 0-2-.592-2-1z" fill="#000000" data-original="#000000" class=""></path><path d="M58 27a5.01 5.01 0 0 0-4.899 4h-5.449a5.929 5.929 0 0 0-1.068-1.853A5.802 5.802 0 0 0 47 27a6.001 6.001 0 0 0-3.256-5.33l6.359-6.359a8.053 8.053 0 0 1-1.414-1.414l-6.056 6.056C41.793 17.651 39.589 16 37 16a5.97 5.97 0 0 0-4 1.54v-6.682c1.721-.447 3-1.999 3-3.858 0-2.206-1.794-4-4-4s-4 1.794-4 4c0 1.859 1.279 3.411 3 3.858v6.168A4.948 4.948 0 0 0 28 16a5.008 5.008 0 0 0-4.899 4.001L23 20a3.97 3.97 0 0 0-1.339.247l-2.35-2.35a8.053 8.053 0 0 1-1.414 1.414l2.088 2.088a3.96 3.96 0 0 0-.966 2.403A5.986 5.986 0 0 0 16 29c0 .694.122 1.367.348 2h-5.449A5.01 5.01 0 0 0 6 27c-2.757 0-5 2.243-5 5s2.243 5 5 5a5.01 5.01 0 0 0 4.899-4h6.474A5.768 5.768 0 0 0 17 35c0 2.625 1.697 4.857 4.05 5.668.028.25.075.494.134.733l-7.287 7.287a8.053 8.053 0 0 1 1.414 1.414l6.761-6.761A6.267 6.267 0 0 0 27 45.996V51c0 2.757 2.243 5 5 5s5-2.243 5-5v-5.101a5.004 5.004 0 0 0 3.83-3.655l3.858 3.858a8.053 8.053 0 0 1 1.414-1.414l-3.207-3.207c.016-.009.031-.014.047-.023 1.093-.628 1.846-1.699 2.015-2.866.019-.13.008-.26.014-.39A5.983 5.983 0 0 0 48 33h5.101A5.009 5.009 0 0 0 58 37c2.757 0 5-2.243 5-5s-2.243-5-5-5zM6 35c-1.654 0-3-1.346-3-3s1.346-3 3-3 3 1.346 3 3-1.346 3-3 3zM30 7c0-1.103.897-2 2-2s2 .897 2 2-.897 2-2 2-2-.897-2-2zm-6.865 33.993C26.381 40.92 29 38.263 29 35h-2c0 2.206-1.794 4-4 4s-4-1.794-4-4c0-.634.165-1.265.491-1.873l.364-.68-.566-.525A3.955 3.955 0 0 1 18 29c0-1.233.565-2.367 1.494-3.114C20.171 27.138 21.479 28 23 28v-2c-1.103 0-2-.897-2-2s.897-2 2-2c.217 0 .438.042.679.13l1.431.519-.092-1.52L25 21c0-1.654 1.346-3 3-3s3 1.346 3 3v23h-3.802c-1.94 0-3.602-1.279-4.063-3.007zM29 46h6v2h-6zm3 8c-1.654 0-3-1.346-3-3v-1h6v1c0 1.654-1.346 3-3 3zm12.52-17.896A3.998 3.998 0 0 0 41 34v2a2 2 0 0 1 1.513.692c.387.445.552 1.019.466 1.612-.081.556-.477 1.1-1.032 1.419-.543.311-1.043.358-1.624.146l-1.432-.52.092 1.521L39 41c0 1.654-1.346 3-3 3h-3V22c0-2.206 1.794-4 4-4 1.861 0 3.416 1.283 3.86 3.007C37.617 21.082 35 23.739 35 27h2c0-2.206 1.794-4 4-4s4 1.794 4 4a3.94 3.94 0 0 1-.491 1.873l-.364.68.566.525A3.955 3.955 0 0 1 46 33a3.992 3.992 0 0 1-1.48 3.104zM58 35c-1.654 0-3-1.346-3-3s1.346-3 3-3 3 1.346 3 3-1.346 3-3 3zM55 13c2.206 0 4-1.794 4-4s-1.794-4-4-4-4 1.794-4 4 1.794 4 4 4zm0-6c1.103 0 2 .897 2 2s-.897 2-2 2-2-.897-2-2 .897-2 2-2z" fill="#000000" data-original="#000000" class=""></path><path d="M13 17c2.206 0 4-1.794 4-4s-1.794-4-4-4-4 1.794-4 4 1.794 4 4 4zm0-6c1.103 0 2 .897 2 2s-.897 2-2 2-2-.897-2-2 .897-2 2-2zM9 51c-2.206 0-4 1.794-4 4s1.794 4 4 4 4-1.794 4-4-1.794-4-4-4zm0 6c-1.103 0-2-.897-2-2s.897-2 2-2 2 .897 2 2-.897 2-2 2zM51 47c-2.206 0-4 1.794-4 4s1.794 4 4 4 4-1.794 4-4-1.794-4-4-4zm0 6c-1.103 0-2-.897-2-2s.897-2 2-2 2 .897 2 2-.897 2-2 2z" fill="#000000" data-original="#000000" class=""></path></g></svg>