<?xml version="1.0" encoding="UTF-8" standalone="no"?>
<!DOCTYPE svg PUBLIC "-//W3C//DTD SVG 1.1//EN" "http://www.w3.org/Graphics/SVG/1.1/DTD/svg11.dtd">
<svg xmlns="http://www.w3.org/2000/svg" version="1.1" viewBox="0 0 110 100">
    <circle fill="rgb(104,48,145)" fill-opacity="1.000" cx="37.94" cy="8.12" r="6.64"/>
    <circle fill="rgb(141,198,65)" fill-opacity="1.000" cx="84.63" cy="14.86" r="6.57"/>
    <path fill="rgb(104,48,145)" fill-opacity="1.000"
          d="M 25.79 35.75 L 26.29 34.50 Q 26.51 34.53 26.72 34.49 Q 26.92 34.46 27.10 34.29 Q 31.30 30.41 34.04 25.48 Q 37.89 18.54 38.02 18.39 Q 42.61 12.70 50.76 12.48 Q 55.69 12.35 57.69 14.06 Q 60.38 16.37 56.44 16.26 Q 45.58 15.97 40.63 25.35 Q 36.28 33.61 27.18 35.89 Q 26.48 36.07 25.79 35.75 Z"/>
    <path fill="rgb(141,198,65)" fill-opacity="1.000"
          d="M 85.00 34.04 Q 83.73 34.36 83.71 33.25 Q 83.05 28.34 78.50 26.75 Q 74.09 25.20 68.76 25.01 Q 59.98 24.70 54.81 18.44 Q 54.38 17.92 54.82 17.52 A 0.92 0.69 32.3 0 1 55.71 17.45 Q 63.00 20.57 69.75 19.75 Q 76.85 18.89 81.94 22.56 Q 88.89 27.56 88.77 36.16 Q 88.76 36.83 88.45 37.26 Q 87.65 38.36 87.00 36.50 Q 86.28 34.42 85.00 34.04 Z"/>
    <path fill="rgb(141,198,65)" fill-opacity="1.000"
          d="M 26.29 34.50 L 25.79 35.75 Q 21.18 41.54 23.75 48.00 Q 26.26 54.31 26.87 57.28 Q 28.05 62.99 25.19 68.44 Q 24.79 69.20 24.33 68.88 A 1.15 0.66 -78.7 0 1 24.03 67.99 Q 24.27 63.10 22.75 60.00 Q 20.98 56.39 19.35 52.71 Q 17.36 48.22 17.34 45.00 Q 17.28 36.52 24.77 31.25 Q 26.22 30.24 28.01 30.25 Q 28.83 30.26 28.37 31.02 L 26.29 34.50 Z"/>
    <circle fill="rgb(104,48,145)" fill-opacity="1.000" cx="59.67" cy="34.16" r="4.10"/>
    <path fill="rgb(104,48,145)" fill-opacity="1.000"
          d="M 83.71 33.25 Q 83.73 34.36 85.00 34.04 Q 84.66 34.44 84.78 34.99 Q 86.02 41.14 88.98 46.58 Q 91.59 51.37 92.09 53.40 Q 94.89 64.95 84.24 71.60 Q 83.64 71.98 83.05 71.92 Q 81.31 71.76 83.11 70.12 Q 84.12 69.21 83.75 67.96 Q 84.71 67.35 84.71 66.25 Q 89.51 59.05 84.81 50.94 Q 80.10 42.81 83.71 33.25 Z"/>
    <circle fill="rgb(141,198,65)" fill-opacity="1.000" cx="9.58" cy="43.12" r="6.65"/>
    <path fill="rgb(141,198,65)" fill-opacity="1.000"
          d="M 51.27 45.83 Q 49.50 46.62 48.08 49.41 Q 47.90 49.75 47.68 49.89 Q 47.11 50.23 47.09 49.25 Q 47.05 47.19 48.17 45.69 Q 48.86 44.77 50.75 43.23 Q 52.31 41.96 54.14 41.16 Q 56.26 40.24 57.94 40.81 Q 60.00 41.51 60.42 43.73 Q 60.65 45.00 59.99 47.21 Q 57.61 55.10 55.25 63.01 Q 54.47 65.62 56.63 63.97 Q 57.98 62.94 59.53 60.72 A 1.02 0.77 -66.5 0 1 60.31 60.28 Q 61.17 60.33 60.76 61.50 Q 58.33 68.43 52.00 69.25 Q 47.99 69.77 47.34 66.55 Q 47.03 65.01 47.87 62.03 Q 49.84 55.00 52.44 46.87 Q 53.02 45.05 51.27 45.83 Z"/>
    <circle fill="rgb(104,48,145)" fill-opacity="1.000" cx="100.58" cy="58.24" r="6.64"/>
    <path fill="rgb(104,48,145)" fill-opacity="1.000"
          d="M 55.75 83.46 L 54.79 83.50 Q 54.37 82.51 53.25 82.25 Q 47.55 80.90 41.76 81.82 Q 24.86 84.49 20.45 68.73 Q 20.23 67.94 20.20 67.25 Q 20.08 64.36 21.76 66.29 Q 22.08 66.65 22.52 67.40 Q 27.80 76.33 38.19 76.29 Q 38.23 76.29 40.80 76.13 Q 48.28 75.67 54.44 80.56 Q 55.93 81.75 55.75 83.46 Z"/>
    <path fill="rgb(141,198,65)" fill-opacity="1.000"
          d="M 84.71 66.25 Q 84.71 67.35 83.75 67.96 Q 80.62 69.64 78.62 72.61 Q 76.54 75.70 74.49 78.81 Q 71.87 82.78 69.72 84.49 Q 61.58 90.96 51.39 85.50 Q 50.73 85.15 50.37 84.70 Q 49.17 83.19 51.94 83.56 Q 53.97 83.84 54.79 83.50 L 55.75 83.46 Q 65.05 83.53 70.00 75.00 Q 74.68 66.93 84.71 66.25 Z"/>
    <circle fill="rgb(104,48,145)" fill-opacity="1.000" cx="26.28" cy="87.77" r="6.67"/>
    <circle fill="rgb(141,198,65)" fill-opacity="1.000" cx="70.98" cy="92.99" r="6.64"/>
</svg>
