<svg xmlns="http://www.w3.org/2000/svg" version="1.1" xmlns:xlink="http://www.w3.org/1999/xlink" xmlns:svgjs="http://svgjs.com/svgjs" width="512" height="512" x="0" y="0" viewBox="0 0 48 48" style="enable-background:new 0 0 512 512" xml:space="preserve" class=""><g><g fill="#7fbde7"><path d="M31.008 31a14.4 14.4 0 0 1-2.135-.16 13.916 13.916 0 0 1-10.441-7.68 1 1 0 1 1 1.8-.879 11.983 11.983 0 0 0 16.248 5.391 1.965 1.965 0 0 1 1.459-.152l2.289.637a1.007 1.007 0 0 0 1.252-1.178l-.488-2.291a2.039 2.039 0 0 1 .247-1.446 11.9 11.9 0 0 0 1.678-7.675 12 12 0 0 0-21.952-5.157 1 1 0 0 1-1.671-1.1 14 14 0 0 1 23.659 14.962l.485 2.3a3.006 3.006 0 0 1-3.744 3.513l-2.3-.641A13.777 13.777 0 0 1 31.008 31z" fill="#fbbf24" data-original="#7fbde7"></path><path d="M33 25h-4a1 1 0 0 1 0-2h4a1 1 0 0 1 0 2zM32.5 17h-3a1 1 0 0 1 0-2h3a1 1 0 0 1 0 2z" fill="#fbbf24" data-original="#7fbde7"></path><path d="M31 25a1 1 0 0 1-1-1v-8a1 1 0 0 1 2 0v8a1 1 0 0 1-1 1z" fill="#fbbf24" data-original="#7fbde7"></path><circle cx="31" cy="12" r="1.5" fill="#fbbf24" data-original="#7fbde7"></circle></g><path fill="#232323" d="M24 45H6a3 3 0 0 1-3-3v-4a11.013 11.013 0 0 1 11-11h2a11.013 11.013 0 0 1 11 11v4a3 3 0 0 1-3 3zM14 29a9.011 9.011 0 0 0-9 9v4a1 1 0 0 0 1 1h18a1 1 0 0 0 1-1v-4a9.011 9.011 0 0 0-9-9zM15 25a9 9 0 1 1 9-9 9.011 9.011 0 0 1-9 9zm0-16a7 7 0 1 0 7 7 7.008 7.008 0 0 0-7-7z" data-original="#232323"></path></g></svg>