<?xml version="1.0" encoding="UTF-8" standalone="no"?>
<!DOCTYPE svg PUBLIC "-//W3C//DTD SVG 1.1//EN" "http://www.w3.org/Graphics/SVG/1.1/DTD/svg11.dtd">
<svg xmlns="http://www.w3.org/2000/svg" version="1.1" viewBox="0 0 110 100">
    <path fill="rgb(65,38,54)" fill-opacity="0.000"
          d="M 0.00 0.00 Q 55.00 0.00 110.00 0.00 Q 110.00 50.00 110.00 100.00 Q 55.00 100.00 0.00 100.00 Q 0.00 50.00 0.00 0.00 Z M 81.59 19.73 Q 79.65 25.39 75.56 28.81 Q 72.22 31.60 67.42 33.89 Q 63.69 35.66 63.62 35.69 Q 48.51 43.23 32.81 51.00 A 1.61 1.38 -22.4 0 0 31.92 52.75 L 33.98 59.45 A 1.05 0.93 -22.5 0 0 35.42 59.94 Q 48.49 53.39 61.58 46.90 Q 72.77 41.35 73.02 41.19 Q 78.63 37.56 81.91 31.60 Q 83.75 28.27 83.62 24.53 Q 83.48 20.30 82.06 15.94 Q 79.08 6.73 69.75 4.50 Q 63.57 3.02 58.55 3.17 A 0.94 0.65 -10.4 0 1 57.75 2.81 L 56.64 0.73 A 0.31 0.25 51.4 0 0 56.17 0.63 L 51.48 7.55 A 0.65 0.60 38.7 0 0 51.60 8.36 L 56.85 13.30 Q 58.08 14.45 57.75 12.77 Q 57.22 10.04 59.53 10.16 Q 60.85 10.23 60.98 10.22 Q 68.04 10.03 74.81 12.94 Q 79.26 14.85 81.51 18.80 A 1.15 1.11 -50.9 0 1 81.59 19.73 Z M 33.31 26.81 A 1.11 0.88 27.9 0 1 35.00 26.50 Q 38.46 29.29 39.39 25.50 Q 39.52 25.00 39.73 25.43 Q 41.22 28.40 38.04 29.43 A 0.95 0.80 -4.3 0 0 37.42 30.04 Q 36.90 32.26 39.60 32.32 A 1.35 1.35 89.3 0 1 40.93 33.62 Q 41.15 38.89 44.64 36.57 A 2.05 2.04 -39.7 0 1 47.17 36.80 Q 50.55 40.06 50.50 35.50 Q 50.49 34.41 53.25 33.50 Q 56.86 32.31 53.66 29.85 A 1.65 1.65 -59.3 0 1 53.16 27.87 Q 55.20 23.29 50.85 24.12 A 1.72 1.71 75.7 0 1 48.88 22.94 Q 47.76 19.27 45.92 21.10 Q 45.87 21.14 44.99 22.69 Q 44.12 24.22 41.55 23.11 A 1.59 1.56 -49.2 0 0 40.08 23.23 Q 39.25 23.76 39.07 23.54 A 0.67 0.37 -29.3 0 1 39.51 22.82 Q 40.58 22.32 41.76 22.43 A 1.69 0.94 19.4 0 0 42.69 22.27 Q 44.52 21.17 42.44 19.06 A 1.56 1.55 -44.1 0 1 42.48 16.85 Q 46.13 13.37 42.35 12.38 Q 40.24 11.83 41.09 9.82 Q 42.39 6.79 40.29 6.55 Q 40.25 6.54 38.38 6.84 Q 36.31 7.17 36.00 4.25 Q 35.77 2.10 34.07 2.73 Q 33.49 2.95 32.59 4.00 Q 30.67 6.25 28.94 3.49 A 1.56 1.13 75.7 0 0 28.21 2.88 Q 26.23 2.25 26.07 4.51 Q 25.88 7.29 23.90 6.97 Q 21.52 6.58 21.40 6.62 Q 19.81 7.09 20.85 9.98 Q 21.53 11.88 19.58 12.41 Q 16.73 13.19 17.70 14.89 Q 17.87 15.19 19.48 16.40 Q 20.89 17.46 19.72 18.91 Q 18.55 20.36 18.52 20.69 Q 18.43 22.15 21.77 22.89 A 1.64 1.64 -79.4 0 1 23.04 24.75 Q 22.55 27.79 24.56 27.57 Q 24.65 27.56 26.77 26.58 Q 28.46 25.80 29.18 27.96 A 1.72 1.14 -89.8 0 0 29.70 28.75 Q 32.56 30.88 33.31 26.81 Z M 71.56 55.30 Q 72.66 50.91 71.83 46.53 A 0.49 0.48 71.6 0 0 71.14 46.18 L 37.26 62.84 A 0.45 0.43 61.0 0 0 37.09 63.48 L 41.30 70.02 A 0.56 0.56 -29.4 0 0 42.02 70.22 L 71.05 55.94 A 0.98 0.92 85.2 0 0 71.56 55.30 Z M 67.82 62.80 Q 69.88 60.44 67.08 61.83 L 43.39 73.55 A 1.18 1.17 70.5 0 0 42.77 74.86 L 44.16 80.86 A 0.83 0.81 70.0 0 0 45.33 81.42 L 61.50 73.18 A 1.35 1.20 88.9 0 0 62.11 72.47 Q 64.06 67.11 67.82 62.80 Z M 60.05 82.61 L 60.83 78.77 Q 61.04 77.72 60.11 78.18 L 51.73 82.26 Q 49.70 83.25 51.98 83.25 L 59.29 83.25 A 0.80 0.77 -84.0 0 0 60.05 82.61 Z M 45.34 84.92 A 1.16 1.14 3.7 0 0 44.19 85.91 Q 42.99 95.74 51.00 96.26 Q 62.92 97.04 60.18 85.43 A 0.63 0.62 -6.4 0 0 59.57 84.95 L 45.34 84.92 Z M 51.26 97.22 Q 50.10 97.04 48.93 97.14 A 0.58 0.51 -3.8 0 0 48.39 97.68 Q 48.45 98.59 49.75 99.00 Q 53.48 100.19 55.97 98.20 Q 56.62 97.69 56.39 97.31 A 1.02 0.54 -11.7 0 0 55.51 97.05 Q 54.45 97.16 53.39 97.30 Q 52.50 97.41 51.26 97.22 Z"/>
    <path fill="rgb(141,198,65)" fill-opacity="1.000"
          d="M 81.51 18.80 Q 79.26 14.85 74.81 12.94 Q 68.04 10.03 60.98 10.22 Q 60.85 10.23 59.53 10.16 Q 57.22 10.04 57.75 12.77 Q 58.08 14.45 56.85 13.30 L 51.60 8.36 A 0.65 0.60 38.7 0 1 51.48 7.55 L 56.17 0.63 A 0.31 0.25 51.4 0 1 56.64 0.73 L 57.75 2.81 A 0.94 0.65 -10.4 0 0 58.55 3.17 Q 63.57 3.02 69.75 4.50 Q 79.08 6.73 82.06 15.94 Q 83.48 20.30 83.62 24.53 Q 83.75 28.27 81.91 31.60 Q 78.63 37.56 73.02 41.19 Q 72.77 41.35 61.58 46.90 Q 48.49 53.39 35.42 59.94 A 1.05 0.93 -22.5 0 1 33.98 59.45 L 31.92 52.75 A 1.61 1.38 -22.4 0 1 32.81 51.00 Q 48.51 43.23 63.62 35.69 Q 63.69 35.66 67.42 33.89 Q 72.22 31.60 75.56 28.81 Q 79.65 25.39 81.59 19.73 A 1.15 1.11 -50.9 0 0 81.51 18.80 Z"/>
    <path fill="rgb(104,48,145)" fill-opacity="1.000"
          d="M 33.31 26.81 Q 32.56 30.88 29.70 28.75 A 1.72 1.14 -89.8 0 1 29.18 27.96 Q 28.46 25.80 26.77 26.58 Q 24.65 27.56 24.56 27.57 Q 22.55 27.79 23.04 24.75 A 1.64 1.64 -79.4 0 0 21.77 22.89 Q 18.43 22.15 18.52 20.69 Q 18.55 20.36 19.72 18.91 Q 20.89 17.46 19.48 16.40 Q 17.87 15.19 17.70 14.89 Q 16.73 13.19 19.58 12.41 Q 21.53 11.88 20.85 9.98 Q 19.81 7.09 21.40 6.62 Q 21.52 6.58 23.90 6.97 Q 25.88 7.29 26.07 4.51 Q 26.23 2.25 28.21 2.88 A 1.56 1.13 75.7 0 1 28.94 3.49 Q 30.67 6.25 32.59 4.00 Q 33.49 2.95 34.07 2.73 Q 35.77 2.10 36.00 4.25 Q 36.31 7.17 38.38 6.84 Q 40.25 6.54 40.29 6.55 Q 42.39 6.79 41.09 9.82 Q 40.24 11.83 42.35 12.38 Q 46.13 13.37 42.48 16.85 A 1.56 1.55 -44.1 0 0 42.44 19.06 Q 44.52 21.17 42.69 22.27 A 1.69 0.94 19.4 0 1 41.76 22.43 Q 40.58 22.32 39.51 22.82 A 0.67 0.37 -29.3 0 0 39.07 23.54 Q 39.25 23.76 40.08 23.23 A 1.59 1.56 -49.2 0 1 41.55 23.11 Q 44.12 24.22 44.99 22.69 Q 45.87 21.14 45.92 21.10 Q 47.76 19.27 48.88 22.94 A 1.72 1.71 75.7 0 0 50.85 24.12 Q 55.20 23.29 53.16 27.87 A 1.65 1.65 -59.3 0 0 53.66 29.85 Q 56.86 32.31 53.25 33.50 Q 50.49 34.41 50.50 35.50 Q 50.55 40.06 47.17 36.80 A 2.05 2.04 -39.7 0 0 44.64 36.57 Q 41.15 38.89 40.93 33.62 A 1.35 1.35 89.3 0 0 39.60 32.32 Q 36.90 32.26 37.42 30.04 A 0.95 0.80 -4.3 0 1 38.04 29.43 Q 41.22 28.40 39.73 25.43 Q 39.52 25.00 39.39 25.50 Q 38.46 29.29 35.00 26.50 A 1.11 0.88 27.9 0 0 33.31 26.81 Z M 35.90 15.95 A 4.89 4.89 0 0 0 31.01 11.06 A 4.89 4.89 0 0 0 26.12 15.95 A 4.89 4.89 0 0 0 31.01 20.84 A 4.89 4.89 0 0 0 35.90 15.95 Z M 48.73 29.57 A 2.37 2.37 0 0 0 46.36 27.20 A 2.37 2.37 0 0 0 43.99 29.57 A 2.37 2.37 0 0 0 46.36 31.94 A 2.37 2.37 0 0 0 48.73 29.57 Z"/>
    <circle fill="rgb(65,38,54)" fill-opacity="0.000" cx="31.01" cy="15.95" r="4.89"/>
    <circle fill="rgb(65,38,54)" fill-opacity="0.000" cx="46.36" cy="29.57" r="2.37"/>
    <path fill="rgb(141,198,65)" fill-opacity="1.000"
          d="M 71.56 55.30 A 0.98 0.92 85.2 0 1 71.05 55.94 L 42.02 70.22 A 0.56 0.56 -29.4 0 1 41.30 70.02 L 37.09 63.48 A 0.45 0.43 61.0 0 1 37.26 62.84 L 71.14 46.18 A 0.49 0.48 71.6 0 1 71.83 46.53 Q 72.66 50.91 71.56 55.30 Z"/>
    <path fill="rgb(141,198,65)" fill-opacity="1.000"
          d="M 67.82 62.80 Q 64.06 67.11 62.11 72.47 A 1.35 1.20 88.9 0 1 61.50 73.18 L 45.33 81.42 A 0.83 0.81 70.0 0 1 44.16 80.86 L 42.77 74.86 A 1.18 1.17 70.5 0 1 43.39 73.55 L 67.08 61.83 Q 69.88 60.44 67.82 62.80 Z"/>
    <path fill="rgb(141,198,65)" fill-opacity="1.000"
          d="M 60.05 82.61 A 0.80 0.77 -84.0 0 1 59.29 83.25 L 51.98 83.25 Q 49.70 83.25 51.73 82.26 L 60.11 78.18 Q 61.04 77.72 60.83 78.77 L 60.05 82.61 Z"/>
    <path fill="rgb(104,48,145)" fill-opacity="1.000"
          d="M 45.34 84.92 L 59.57 84.95 A 0.63 0.62 -6.4 0 1 60.18 85.43 Q 62.92 97.04 51.00 96.26 Q 42.99 95.74 44.19 85.91 A 1.16 1.14 3.7 0 1 45.34 84.92 Z M 51.57 94.19 Q 48.73 93.33 46.86 91.17 Q 46.40 90.64 46.33 91.20 Q 46.31 91.44 46.51 91.73 Q 48.56 94.68 51.50 94.68 Q 53.22 94.69 51.57 94.19 Z"/>
    <path fill="rgb(65,38,54)" fill-opacity="0.000"
          d="M 51.57 94.19 Q 53.22 94.69 51.50 94.68 Q 48.56 94.68 46.51 91.73 Q 46.31 91.44 46.33 91.20 Q 46.40 90.64 46.86 91.17 Q 48.73 93.33 51.57 94.19 Z"/>
    <path fill="rgb(104,48,145)" fill-opacity="1.000"
          d="M 53.39 97.30 Q 54.45 97.16 55.51 97.05 A 1.02 0.54 -11.7 0 1 56.39 97.31 Q 56.62 97.69 55.97 98.20 Q 53.48 100.19 49.75 99.00 Q 48.45 98.59 48.39 97.68 A 0.58 0.51 -3.8 0 1 48.93 97.14 Q 50.10 97.04 51.26 97.22 Q 52.50 97.41 53.39 97.30 Z"/>
</svg>
